<mxfile host="app.diagrams.net" modified="2024-04-02T15:01:14.411Z" agent="Mozilla/5.0 (Windows NT 10.0; Win64; x64) AppleWebKit/537.36 (KHTML, like Gecko) Chrome/123.0.0.0 Safari/537.36" version="24.2.1" etag="ygMjVr3vKz4qfxw6euYl" type="github">
  <diagram name="Page-1" id="KSSyJ3wgS3jBatMQyu09">
    <mxGraphModel>
      <root>
        <mxCell id="0" />
        <mxCell id="1" parent="0" />
      </root>
    </mxGraphModel>
  </diagram>
</mxfile>
